<?xml version="1.0" encoding="UTF-8"?>
<!DOCTYPE svg PUBLIC "-//W3C//DTD SVG 1.1//EN" "http://www.w3.org/Graphics/SVG/1.1/DTD/svg11.dtd">
<svg version="1.1" xmlns="http://www.w3.org/2000/svg" xmlns:xlink="http://www.w3.org/1999/xlink" x="0" y="0" width="602" height="602" viewBox="0, 0, 602, 602">
  <g id="Layer_1">
    <path d="M0.06,0.317 L601.682,0.317 L601.682,602 L0.06,602 z" fill="#C0DFC5"/>
    <path d="M601.682,100.396 L601.682,210.562 L579.444,211.95 C579.414,212.775 579.378,213.6 579.336,214.425 C570.318,218.842 561.302,223.259 552.285,227.675 C552.572,226.133 552.85,224.594 553.124,223.057 L516.906,230.014 C518.171,226.346 519.351,222.678 520.449,219.011 L493.875,220.669 C496.368,228.576 499.177,236.371 502.34,244.043 C486.732,248.2 471.125,252.357 455.517,256.514 C454.932,249.191 454.566,241.867 454.408,234.544 L446.153,238.587 C448.173,227.736 449.864,217.013 451.192,206.411 L428.463,217.543 C429.497,211.994 430.443,206.479 431.3,200.996 L406.543,208.002 C406.801,208.539 407.058,209.075 407.32,209.61 L403.225,210.723 C403.188,211.721 403.146,212.718 403.097,213.716 C394.08,218.133 385.062,222.55 376.043,226.967 C376.623,223.855 377.175,220.753 377.7,217.661 L361.438,222.081 C361.242,220.815 361.053,219.548 360.869,218.281 L336.027,225.2 L336.021,225.371 C327.003,229.788 317.985,234.205 308.968,238.621 C309.217,237.28 309.46,235.942 309.701,234.604 L306.407,236.217 C306.356,237.622 306.298,239.028 306.229,240.436 L299.72,243.624 C303.226,257.331 307.588,270.74 312.968,283.794 C297.361,287.95 281.753,292.107 266.145,296.264 C264.019,269.699 264.805,243.135 267.823,216.571 L252.876,217.504 L242.831,220.179 L242.81,220.6 C233.792,225.017 224.775,229.434 215.757,233.85 L216.059,232.219 L206.24,237.028 L206.39,236.215 L199.266,239.704 C199.727,237.232 200.171,234.766 200.601,232.304 L180.38,236.189 C181.646,232.521 182.824,228.853 183.923,225.186 L157.349,226.845 C159.841,234.751 162.651,242.546 165.813,250.218 C150.206,254.375 134.599,258.532 118.991,262.689 C118.404,255.365 118.04,248.042 117.882,240.718 L109.626,244.762 C111.647,233.912 113.338,223.188 114.666,212.586 L91.938,223.717 C92.971,218.169 93.917,212.654 94.774,207.171 L70.018,214.177 C70.275,214.713 70.532,215.25 70.793,215.785 L66.7,216.898 C66.663,217.896 66.62,218.893 66.571,219.892 C57.554,224.308 48.536,228.725 39.518,233.142 C40.097,230.03 40.649,226.927 41.175,223.835 L24.912,228.255 C24.715,226.989 24.527,225.723 24.343,224.456 L-0,231.237 L-0,115.376 C2.714,126.152 5.75,136.811 9.167,147.327 C12.031,116.162 11.509,86.062 6.616,56.922 C13.663,75.088 19.361,93.331 23.347,111.673 C25.483,92.338 28.634,73.002 32.541,53.667 C34.973,87.909 39.488,121.402 47.949,153.48 C48.204,133.62 46.873,114.198 43.681,95.185 C50.347,112.372 55.807,129.63 59.752,146.974 C60.58,124.017 59.368,101.645 55.702,79.812 C60.227,91.478 64.196,103.176 67.513,114.912 C71.359,86.749 77.297,58.585 84.654,30.422 C84.453,78.06 87.922,124.334 99.35,167.651 C101.383,139.509 100.546,112.239 96.1,85.761 C107.162,114.282 114.905,142.993 117.906,171.979 C118.595,149.719 117.349,128.007 113.788,106.805 C118.705,119.479 122.963,132.19 126.444,144.946 C130.008,125.997 134.542,107.048 139.801,88.099 C139.732,103.562 140.1,118.871 141.08,133.967 C144.805,104.128 151.289,74.29 159.571,44.451 C159.412,79.79 161.535,114.33 168.036,147.341 C171.056,127.871 172.637,107.821 173.097,87.32 C183.095,116.26 190.786,145.324 194.045,174.625 C197.743,139.028 194.431,103.432 185.583,67.835 C195.005,85.669 202.684,104.065 208.486,123.062 C207.792,109.012 206.335,95.155 204.04,81.482 C209.345,95.159 213.982,108.876 217.838,122.637 C217.904,97.217 216.043,72.32 211.945,47.916 C220.684,70.447 227.911,93.065 233.255,115.791 C237.024,93.754 242.159,71.719 248.275,49.682 C248.176,72.034 248.986,94.067 251.242,115.596 C252.579,105.49 254.228,95.383 256.152,85.276 C256.227,83.105 256.289,80.928 256.337,78.746 L257.029,80.76 C260.405,63.741 264.543,46.722 269.268,29.703 C269.098,67.37 271.521,104.132 279.075,139.099 C279.609,135.148 280.191,131.196 280.817,127.246 C280.148,108.551 278.357,90.146 275.313,72.015 C279.043,81.632 282.494,91.265 285.635,100.916 C287.688,90.976 289.996,81.037 292.523,71.097 C292.016,67.478 291.462,63.868 290.857,60.271 C291.76,62.596 292.644,64.921 293.513,67.248 C294.61,63.026 295.745,58.806 296.917,54.584 C296.882,62.191 296.955,69.76 297.154,77.286 C306.234,103.094 313.184,129.025 317.428,155.111 C317.475,136.588 316.115,118.447 313.13,100.665 C315.863,107.713 318.396,114.775 320.702,121.848 C320.675,98.408 322.222,74.967 324.879,51.527 C329.771,82.16 336.281,112.194 345.693,141.152 C348.557,109.987 348.035,79.887 343.144,50.748 C350.188,68.913 355.887,87.156 359.873,105.498 C362.008,86.163 365.16,66.827 369.068,47.491 C371.499,81.734 376.015,115.228 384.475,147.305 C384.729,127.445 383.399,108.023 380.206,89.009 C386.872,106.197 392.334,123.455 396.278,140.799 C397.105,117.842 395.894,95.47 392.228,73.637 C396.752,85.303 400.722,97.001 404.038,108.737 C407.885,80.573 413.823,52.411 421.181,24.247 C420.979,71.885 424.448,118.159 435.876,161.477 C437.908,133.334 437.071,106.064 432.626,79.586 C443.688,108.107 451.431,136.818 454.432,165.803 C455.121,143.544 453.875,121.833 450.314,100.63 C455.23,113.303 459.489,126.014 462.968,138.771 C466.532,119.821 471.067,100.873 476.327,81.924 C476.258,97.386 476.626,112.696 477.604,127.791 C481.331,97.953 487.815,68.115 496.096,38.276 C495.939,73.615 498.061,108.155 504.561,141.165 C507.581,121.696 509.163,101.646 509.624,81.145 C519.622,110.086 527.311,139.15 530.57,168.45 C534.27,132.853 530.956,97.256 522.108,61.659 C543.468,102.092 555.879,145.399 557.738,192.091 C561.924,156.646 561.963,122.572 556.446,89.718 C567.516,118.259 575.262,146.99 578.259,175.995 C587.767,143.392 592.052,108.683 592.864,72.571 C596.063,81.832 599.026,91.106 601.682,100.396" fill="#3D6B36"/>
    <path d="M601.682,306.247 C600.691,308.87 599.663,311.477 598.595,314.071 L601.682,314.893 L601.682,306.247 z M601.682,149.37 L601.682,268.453 L575.542,255.65 L575.533,255.478 L550.695,248.559 C550.511,249.826 550.32,251.092 550.125,252.359 L533.862,247.938 C534.388,251.03 534.939,254.132 535.52,257.245 C526.499,252.827 517.482,248.411 508.466,243.995 C508.414,242.997 508.375,241.999 508.336,241.001 L504.244,239.888 C504.504,239.353 504.76,238.816 505.02,238.28 L480.263,231.275 C481.119,236.757 482.064,242.272 483.099,247.82 L460.37,236.689 C461.697,247.291 463.391,258.015 465.409,268.866 L457.153,264.821 C456.996,272.144 456.631,279.468 456.045,286.792 C440.438,282.634 424.83,278.478 409.223,274.321 C412.385,266.649 415.194,258.854 417.688,250.947 L391.113,249.289 C392.212,252.956 393.391,256.625 394.656,260.292 L374.435,256.408 C374.865,258.869 375.311,261.335 375.771,263.808 L368.647,260.318 L368.797,261.131 L358.977,256.323 L359.278,257.954 C350.262,253.537 341.243,249.12 332.226,244.703 L332.206,244.282 L322.16,241.606 L307.213,240.674 C310.231,267.238 311.017,293.803 308.892,320.367 C293.284,316.21 277.676,312.053 262.068,307.896 C267.449,294.843 271.811,281.434 275.316,267.727 L268.809,264.539 C268.738,263.132 268.68,261.725 268.628,260.319 L265.335,258.707 C265.576,260.044 265.819,261.383 266.069,262.724 C257.051,258.308 248.033,253.89 239.016,249.474 L239.008,249.303 L214.167,242.385 C213.984,243.651 213.795,244.918 213.598,246.183 L197.336,241.764 C197.86,244.856 198.414,247.958 198.993,251.07 C189.975,246.652 180.957,242.236 171.939,237.82 C171.89,236.821 171.848,235.824 171.811,234.826 L167.717,233.713 C167.978,233.178 168.235,232.642 168.493,232.105 L143.736,225.1 C144.593,230.582 145.539,236.097 146.573,241.646 L123.844,230.514 C125.172,241.116 126.864,251.839 128.884,262.69 L120.627,258.646 C120.47,265.97 120.105,273.294 119.52,280.616 C103.912,276.46 88.305,272.303 72.696,268.146 C75.86,260.474 78.669,252.679 81.161,244.773 L54.587,243.113 C55.686,246.781 56.865,250.449 58.13,254.117 L21.912,247.16 C22.185,248.697 22.466,250.236 22.752,251.778 L-0,240.634 L-0,177.818 C3.97,156.358 10.362,135.036 18.59,113.821 C13.074,146.675 13.112,180.75 17.298,216.195 C19.158,169.501 31.568,126.195 52.927,85.762 C44.079,121.359 40.768,156.957 44.465,192.553 C47.725,163.253 55.415,134.189 65.413,105.248 C65.874,125.75 67.455,145.799 70.475,165.269 C76.976,132.259 79.099,97.718 78.94,62.379 C87.222,92.218 93.706,122.056 97.431,151.894 C98.411,136.799 98.778,121.489 98.709,106.027 C103.969,124.976 108.502,143.925 112.066,162.874 C115.546,150.117 119.807,137.407 124.722,124.734 C121.162,145.936 119.916,167.647 120.604,189.907 C123.604,160.921 131.348,132.21 142.41,103.689 C137.964,130.167 137.127,157.437 139.161,185.579 C150.588,142.261 154.057,95.988 153.856,48.351 C161.214,76.514 167.151,104.677 170.998,132.839 C174.315,121.104 178.284,109.406 182.809,97.739 C179.143,119.573 177.931,141.945 178.759,164.901 C182.703,147.558 188.164,130.3 194.831,113.112 C191.638,132.126 190.307,151.547 190.562,171.408 C199.021,139.331 203.538,105.837 205.969,71.594 C209.877,90.93 213.028,110.266 215.163,129.601 C219.149,111.259 224.848,93.016 231.894,74.851 C227,103.99 226.479,134.089 229.344,165.255 C238.755,136.297 245.265,106.263 250.157,75.63 C252.814,99.07 254.362,122.511 254.334,145.951 C256.641,138.878 259.173,131.817 261.907,124.767 C258.921,142.55 257.562,160.691 257.608,179.213 C261.853,153.128 268.803,127.196 277.883,101.389 C278.082,93.863 278.153,86.294 278.119,78.688 C279.292,82.908 280.427,87.13 281.523,91.35 C282.392,89.023 283.276,86.699 284.178,84.374 C283.574,87.971 283.019,91.581 282.513,95.2 C285.04,105.14 287.348,115.079 289.401,125.018 C292.543,115.368 295.994,105.735 299.724,96.119 C296.679,114.249 294.888,132.654 294.219,151.348 C294.845,155.3 295.428,159.25 295.962,163.202 C303.517,128.234 305.938,91.473 305.77,53.806 C310.493,70.825 314.632,87.845 318.008,104.863 L318.698,102.849 C318.748,105.031 318.811,107.208 318.884,109.379 C320.808,119.485 322.457,129.592 323.794,139.699 C326.05,118.17 326.861,96.137 326.76,73.785 C332.877,95.822 338.013,117.859 341.78,139.893 C347.125,117.167 354.353,94.55 363.092,72.019 C358.993,96.423 357.132,121.319 357.198,146.74 C361.053,132.979 365.691,119.263 370.996,105.586 C368.701,119.258 367.245,133.115 366.55,147.165 C372.352,128.168 380.031,109.773 389.452,91.937 C380.604,127.534 377.293,163.132 380.991,198.728 C384.25,169.427 391.94,140.364 401.939,111.423 C402.399,131.924 403.981,151.974 407,171.444 C413.502,138.433 415.625,103.893 415.466,68.554 C423.748,98.393 430.231,128.231 433.957,158.069 C434.937,142.974 435.305,127.664 435.235,112.202 C440.495,131.151 445.029,150.1 448.593,169.048 C452.072,156.293 456.332,143.582 461.248,130.908 C457.688,152.111 456.441,173.822 457.129,196.082 C460.132,167.096 467.875,138.384 478.938,109.864 C474.489,136.341 473.653,163.611 475.685,191.755 C487.112,148.437 490.583,102.163 490.381,54.525 C497.741,82.688 503.677,110.852 507.524,139.014 C510.841,127.279 514.809,115.581 519.335,103.915 C515.669,125.748 514.456,148.12 515.285,171.076 C519.229,153.733 524.688,136.476 531.354,119.288 C528.165,138.301 526.831,157.723 527.088,177.583 C535.546,145.505 540.063,112.012 542.496,77.769 C546.4,97.105 549.555,116.441 551.69,135.776 C555.674,117.434 561.374,99.191 568.421,81.026 C563.526,110.165 563.004,140.265 565.868,171.43 C575.28,142.473 581.789,112.438 586.684,81.805 C589.339,105.245 590.888,128.686 590.86,152.126 C593.166,145.052 595.697,137.991 598.432,130.943 C595.447,148.725 594.089,166.867 594.135,185.389 C596.093,173.35 598.628,161.345 601.682,149.37" fill="#5A9141"/>
    <path d="M537.109,303.587 C537.32,303.001 537.532,302.415 537.74,301.828 L536.811,301.581 C536.913,302.25 537.01,302.918 537.109,303.587 z M601.682,187.957 L601.682,192.974 C596.624,228.519 597.067,265.309 601.682,303.484 L601.682,339.811 L600.635,339.297 L600.782,340.111 L568.991,324.54 L538.832,316.507 C542.152,344.121 543.091,371.734 540.879,399.345 C525.271,395.188 509.664,391.032 494.057,386.877 C499.437,373.822 503.797,360.415 507.304,346.705 L500.795,343.518 C500.726,342.111 500.668,340.705 500.616,339.298 L497.324,337.685 C497.563,339.023 497.808,340.362 498.055,341.703 C489.038,337.287 480.021,332.871 471.004,328.454 L470.995,328.282 L446.154,321.363 C445.971,322.63 445.782,323.896 445.586,325.163 L429.323,320.743 C429.849,323.834 430.4,326.936 430.98,330.049 C421.962,325.631 412.943,321.215 403.927,316.799 C403.877,315.8 403.836,314.803 403.799,313.805 L399.705,312.692 C399.966,312.157 400.223,311.62 400.48,311.084 L375.724,304.078 C376.58,309.561 377.526,315.076 378.561,320.625 L355.831,309.493 C357.159,320.094 358.851,330.819 360.872,341.67 L352.615,337.626 C352.457,344.949 352.094,352.273 351.507,359.596 C335.899,355.438 320.292,351.283 304.685,347.126 C307.847,339.454 310.656,331.658 313.149,323.752 L286.574,322.092 C287.674,325.76 288.852,329.428 290.117,333.095 L269.896,329.212 C270.326,331.672 270.771,334.139 271.231,336.612 L264.108,333.123 L264.257,333.936 L254.439,329.127 L254.741,330.757 C245.723,326.34 236.705,321.923 227.687,317.507 L227.667,317.087 L217.622,314.411 L202.675,313.478 C205.693,340.043 206.479,366.606 204.352,393.171 C188.745,389.014 173.137,384.857 157.529,380.701 C162.911,367.648 167.272,354.239 170.777,340.531 L164.27,337.342 C164.2,335.936 164.141,334.53 164.09,333.124 L160.797,331.51 C161.037,332.848 161.28,334.187 161.53,335.528 C152.513,331.112 143.495,326.695 134.477,322.279 L134.47,322.107 L109.628,315.188 C109.445,316.455 109.257,317.721 109.06,318.988 L92.797,314.568 C93.322,317.66 93.874,320.761 94.454,323.874 C85.437,319.457 76.419,315.041 67.4,310.624 C67.352,309.626 67.31,308.628 67.272,307.63 L63.178,306.517 C63.44,305.982 63.696,305.446 63.954,304.909 L39.198,297.903 C40.054,303.386 41.001,308.901 42.034,314.45 L19.306,303.318 C20.633,313.92 22.325,324.643 24.346,335.494 L16.089,331.451 C15.931,338.775 15.566,346.097 14.981,353.421 L-0,349.43 L-0,201.089 C2.831,212.619 5.359,224.149 7.528,235.678 C11.008,222.921 15.268,210.211 20.184,197.538 C16.624,218.74 15.376,240.451 16.065,262.711 C19.066,233.726 26.81,205.014 37.872,176.493 C33.426,202.97 32.589,230.241 34.622,258.383 C46.05,215.065 49.518,168.792 49.318,121.154 C56.675,149.317 62.613,177.481 66.459,205.643 C69.776,193.907 73.746,182.21 78.27,170.544 C74.604,192.377 73.392,214.75 74.22,237.706 C78.165,220.361 83.625,203.105 90.292,185.917 C87.099,204.93 85.768,224.352 86.023,244.212 C94.482,212.135 98.999,178.64 101.43,144.398 C105.338,163.734 108.489,183.069 110.624,202.405 C114.61,184.064 120.309,165.82 127.355,147.655 C122.462,176.794 121.94,206.893 124.805,238.059 C134.217,209.102 140.726,179.067 145.619,148.434 C148.276,171.875 149.823,195.315 149.795,218.756 C152.103,211.682 154.634,204.62 157.368,197.572 C154.382,215.355 153.023,233.495 153.069,252.018 C157.314,225.932 164.265,200.001 173.344,174.193 C173.542,166.667 173.615,159.098 173.581,151.491 C174.752,155.713 175.888,159.934 176.985,164.155 C177.853,161.828 178.738,159.502 179.64,157.178 C179.036,160.775 178.481,164.385 177.975,168.005 C180.501,177.944 182.81,187.883 184.862,197.822 C188.004,188.172 191.455,178.539 195.185,168.922 C192.141,187.053 190.35,205.459 189.681,224.152 C190.307,228.104 190.889,232.055 191.423,236.006 C198.978,201.039 201.4,164.277 201.23,126.61 C205.955,143.63 210.093,160.648 213.469,177.667 L214.16,175.653 C214.209,177.836 214.271,180.012 214.346,182.183 C216.27,192.289 217.918,202.396 219.256,212.503 C221.511,190.974 222.322,168.941 222.222,146.589 C228.339,168.626 233.474,190.662 237.243,212.698 C242.586,189.972 249.813,167.354 258.553,144.823 C254.455,169.228 252.593,194.124 252.66,219.544 C256.515,205.783 261.153,192.067 266.458,178.39 C264.163,192.062 262.707,205.919 262.012,219.969 C267.813,200.971 275.492,182.577 284.914,164.742 C276.066,200.338 272.754,235.935 276.452,271.532 C279.712,242.232 287.402,213.168 297.4,184.227 C297.86,204.729 299.441,224.778 302.462,244.248 C308.962,211.237 311.085,176.697 310.927,141.359 C319.21,171.197 325.693,201.034 329.417,230.873 C330.398,215.778 330.767,200.469 330.697,185.006 C335.957,203.956 340.489,222.903 344.053,241.853 C347.534,229.097 351.793,216.386 356.709,203.713 C353.148,224.915 351.902,246.626 352.592,268.885 C355.593,239.9 363.336,211.189 374.397,182.668 C369.952,209.145 369.115,236.416 371.147,264.558 C382.575,221.241 386.044,174.966 385.844,127.329 C393.2,155.492 399.139,183.656 402.985,211.819 C406.302,200.083 410.271,188.385 414.796,176.719 C411.13,198.552 409.918,220.925 410.745,243.881 C414.69,226.536 420.151,209.279 426.817,192.091 C423.625,211.105 422.294,230.527 422.549,250.387 C431.009,218.309 435.524,184.816 437.957,150.574 C441.863,169.909 445.016,189.244 447.15,208.58 C451.137,190.238 456.836,171.995 463.883,153.83 C458.988,182.968 458.466,213.069 461.329,244.234 C470.741,215.276 477.251,185.242 482.146,154.609 C484.801,178.049 486.349,201.49 486.322,224.93 C488.627,217.857 491.159,210.796 493.894,203.747 C490.909,221.53 489.551,239.671 489.596,258.193 C494.774,226.367 503.979,194.774 516.167,163.353 C511.791,189.4 510.005,216.016 510.418,243.241 C515.711,220.423 522.938,197.716 531.711,175.098 C527.764,198.607 525.923,222.578 525.904,247.044 C526.067,247.71 526.23,248.377 526.394,249.045 C535.175,212.038 537.937,172.925 537.758,132.785 C545.704,161.416 551.995,190.047 555.782,218.678 C558.037,197.149 558.849,175.116 558.749,152.764 C564.866,174.8 569.999,196.837 573.768,218.873 C579.112,196.147 586.34,173.528 595.079,150.999 C590.98,175.402 589.119,200.298 589.186,225.718 C592.722,213.095 596.917,200.509 601.682,187.957" fill="#74AD4B"/>
    <path d="M601.682,195.703 L601.682,602 L-0,602 L-0,191.911 C24.909,231.712 103.22,206.306 155.625,216.087 C238.148,231.489 314.453,231.79 409.948,213.755 C475.959,201.289 555.001,249.191 601.682,195.703" fill="#54321D"/>
    <path d="M601.682,261.601 L601.682,602 L-0,602 L-0,254.72 C41.596,237.655 106.039,223.097 157.479,235.932 C193.651,244.958 297.303,251.192 382.601,241.451 C449.266,233.838 520.702,226.477 601.682,261.601" fill="#744224"/>
    <path d="M601.682,346.542 L601.682,602 L-0,602 L-0,332.663 C29.544,352.568 89.97,370.729 201.049,345.392 C263.585,331.129 339.293,331.699 450.273,357.412 C497.56,368.369 570.76,362.921 601.682,346.542" fill="#54321D"/>
    <path d="M601.682,437.546 L601.682,602 L-0,602 L-0,441.705 C55.5,537.434 98.387,457.463 199.195,484.009 C231.395,492.489 276.333,500.38 382.601,479.854 C444.973,467.805 557.783,534.573 601.682,437.546" fill="#3C281A"/>
    <path d="M47.105,275.097 C49.537,275.097 51.509,277.068 51.509,279.501 C51.509,281.932 49.537,283.903 47.105,283.903 C44.674,283.903 42.702,281.932 42.702,279.501 C42.702,277.068 44.674,275.097 47.105,275.097 z M75.379,298.736 C77.299,298.736 78.856,300.293 78.856,302.213 C78.856,304.131 77.299,305.689 75.379,305.689 C73.46,305.689 71.903,304.131 71.903,302.213 C71.903,300.293 73.46,298.736 75.379,298.736 z M108.985,320.521 C109.497,320.521 109.912,320.936 109.912,321.449 C109.912,321.961 109.497,322.376 108.985,322.376 C108.473,322.376 108.058,321.961 108.058,321.449 C108.058,320.936 108.473,320.521 108.985,320.521 z M123.354,280.195 C124.121,280.195 124.744,280.818 124.744,281.586 C124.744,282.354 124.121,282.976 123.354,282.976 C122.585,282.976 121.963,282.354 121.963,281.586 C121.963,280.818 122.585,280.195 123.354,280.195 z M155.336,259.801 C157.384,259.801 159.044,261.461 159.044,263.509 C159.044,265.558 157.384,267.218 155.336,267.218 C153.288,267.218 151.627,265.558 151.627,263.509 C151.627,261.461 153.288,259.801 155.336,259.801 z M181.757,271.853 C184.061,271.853 185.928,273.72 185.928,276.024 C185.928,278.328 184.061,280.195 181.757,280.195 C179.452,280.195 177.584,278.328 177.584,276.024 C177.584,273.72 179.452,271.853 181.757,271.853 z M210.495,292.711 C213.822,292.711 216.52,295.408 216.52,298.736 C216.52,302.064 213.822,304.761 210.495,304.761 C207.167,304.761 204.469,302.064 204.469,298.736 C204.469,295.408 207.167,292.711 210.495,292.711 z M173.182,320.057 C172.03,320.057 171.096,320.992 171.096,322.143 C171.096,323.296 172.03,324.229 173.182,324.229 C174.334,324.229 175.267,323.296 175.267,322.143 C175.267,320.992 174.334,320.057 173.182,320.057 z M142.126,319.13 C143.534,319.13 144.675,320.272 144.675,321.68 C144.675,323.088 143.534,324.229 142.126,324.229 C140.718,324.229 139.576,323.088 139.576,321.68 C139.576,320.272 140.718,319.13 142.126,319.13 z M144.211,293.638 C148.564,293.638 152.091,297.166 152.091,301.517 C152.091,305.869 148.564,309.397 144.211,309.397 C139.859,309.397 136.332,305.869 136.332,301.517 C136.332,297.166 139.859,293.638 144.211,293.638 z M111.071,249.14 C112.99,249.14 114.546,250.697 114.546,252.616 C114.546,254.536 112.99,256.092 111.071,256.092 C109.151,256.092 107.594,254.536 107.594,252.616 C107.594,250.697 109.151,249.14 111.071,249.14 z M76.771,276.951 C77.41,276.951 77.929,277.47 77.929,278.109 C77.929,278.75 77.41,279.268 76.771,279.268 C76.13,279.268 75.611,278.75 75.611,278.109 C75.611,277.47 76.13,276.951 76.771,276.951 z M57.998,322.376 C59.534,322.376 60.779,323.621 60.779,325.157 C60.779,326.693 59.534,327.937 57.998,327.937 C56.462,327.937 55.217,326.693 55.217,325.157 C55.217,323.621 56.462,322.376 57.998,322.376 z M103.19,328.865 C105.366,328.865 107.129,330.629 107.129,332.804 C107.129,334.98 105.366,336.744 103.19,336.744 C101.014,336.744 99.251,334.98 99.251,332.804 C99.251,330.629 101.014,328.865 103.19,328.865 z M236.451,320.057 C239.268,320.057 241.55,322.34 241.55,325.157 C241.55,327.973 239.268,330.255 236.451,330.255 C233.635,330.255 231.352,327.973 231.352,325.157 C231.352,322.34 233.635,320.057 236.451,320.057 z M269.824,288.075 C273.408,288.075 276.314,290.981 276.314,294.565 C276.314,298.149 273.408,301.054 269.824,301.054 C266.24,301.054 263.335,298.149 263.335,294.565 C263.335,290.981 266.24,288.075 269.824,288.075 z M318.726,292.711 C320.389,292.711 321.737,294.06 321.737,295.723 C321.737,297.387 320.389,298.736 318.726,298.736 C317.062,298.736 315.713,297.387 315.713,295.723 C315.713,294.06 317.062,292.711 318.726,292.711 z M334.253,319.594 C336.558,319.594 338.425,321.463 338.425,323.766 C338.425,326.07 336.558,327.937 334.253,327.937 C331.949,327.937 330.081,326.07 330.081,323.766 C330.081,321.463 331.949,319.594 334.253,319.594 z M380.604,311.714 C381.629,311.714 382.459,312.545 382.459,313.569 C382.459,314.592 381.629,315.422 380.604,315.422 C379.58,315.422 378.75,314.592 378.75,313.569 C378.75,312.545 379.58,311.714 380.604,311.714 z M415.368,297.809 C415.88,297.809 416.295,298.224 416.295,298.736 C416.295,299.248 415.88,299.663 415.368,299.663 C414.856,299.663 414.441,299.248 414.441,298.736 C414.441,298.224 414.856,297.809 415.368,297.809 z M441.324,291.783 C445.676,291.783 449.204,295.311 449.204,299.663 C449.204,304.014 445.676,307.543 441.324,307.543 C436.974,307.543 433.445,304.014 433.445,299.663 C433.445,295.311 436.974,291.783 441.324,291.783 z M446.423,321.449 C449.238,321.449 451.521,323.731 451.521,326.546 C451.521,329.363 449.238,331.645 446.423,331.645 C443.607,331.645 441.324,329.363 441.324,326.546 C441.324,323.731 443.607,321.449 446.423,321.449 z M416.063,326.083 C416.96,326.083 417.686,326.809 417.686,327.706 C417.686,328.601 416.96,329.328 416.063,329.328 C415.168,329.328 414.441,328.601 414.441,327.706 C414.441,326.809 415.168,326.083 416.063,326.083 z M398.449,274.633 C399.089,274.633 399.608,275.152 399.608,275.792 C399.608,276.432 399.089,276.951 398.449,276.951 C397.81,276.951 397.291,276.432 397.291,275.792 C397.291,275.152 397.81,274.633 398.449,274.633 z M374.578,253.775 C376.114,253.775 377.36,255.021 377.36,256.556 C377.36,258.092 376.114,259.338 374.578,259.338 C373.042,259.338 371.798,258.092 371.798,256.556 C371.798,255.021 373.042,253.775 374.578,253.775 z M362.76,283.903 C364.936,283.903 366.699,285.668 366.699,287.844 C366.699,290.02 364.936,291.783 362.76,291.783 C360.584,291.783 358.82,290.02 358.82,287.844 C358.82,285.668 360.584,283.903 362.76,283.903 z M322.665,257.02 C324.201,257.02 325.446,258.265 325.446,259.801 C325.446,261.337 324.201,262.582 322.665,262.582 C321.129,262.582 319.885,261.337 319.885,259.801 C319.885,258.265 321.129,257.02 322.665,257.02 z M281.875,263.508 C283.667,263.508 285.12,264.962 285.12,266.754 C285.12,268.545 283.667,269.998 281.875,269.998 C280.083,269.998 278.631,268.545 278.631,266.754 C278.631,264.962 280.083,263.508 281.875,263.508 z M245.722,265.364 C248.026,265.364 249.894,267.231 249.894,269.535 C249.894,271.839 248.026,273.707 245.722,273.707 C243.417,273.707 241.55,271.839 241.55,269.535 C241.55,267.231 243.417,265.364 245.722,265.364 z M244.794,300.59 C247.61,300.59 249.893,302.873 249.893,305.689 C249.893,308.505 247.61,310.787 244.794,310.787 C241.978,310.787 239.696,308.505 239.696,305.689 C239.696,302.873 241.978,300.59 244.794,300.59 z M293,323.766 C295.815,323.766 298.099,326.049 298.099,328.865 C298.099,331.68 295.815,333.963 293,333.963 C290.185,333.963 287.902,331.68 287.902,328.865 C287.902,326.049 290.185,323.766 293,323.766 z M448.856,340.453 C449.689,340.453 450.364,341.127 450.364,341.959 C450.364,342.791 449.689,343.464 448.856,343.464 C448.025,343.464 447.351,342.791 447.351,341.959 C447.351,341.127 448.025,340.453 448.856,340.453 z M476.436,332.573 C477.139,332.573 477.713,333.143 477.713,333.847 C477.713,334.551 477.139,335.123 476.436,335.123 C475.733,335.123 475.162,334.551 475.162,333.847 C475.162,333.143 475.733,332.573 476.436,332.573 z M492.892,307.079 C494.491,307.079 495.788,308.377 495.788,309.976 C495.788,311.576 494.491,312.873 492.892,312.873 C491.292,312.873 489.994,311.576 489.994,309.976 C489.994,308.377 491.292,307.079 492.892,307.079 z M510.388,324.925 C511.414,324.925 512.244,325.755 512.244,326.779 C512.244,327.803 511.414,328.632 510.388,328.632 C509.365,328.632 508.535,327.803 508.535,326.779 C508.535,325.755 509.365,324.925 510.388,324.925 z M518.964,341.148 C520.757,341.148 522.208,342.601 522.208,344.393 C522.208,346.184 520.757,347.636 518.964,347.636 C517.172,347.636 515.72,346.184 515.72,344.393 C515.72,342.601 517.172,341.148 518.964,341.148 z M478.871,306.153 C480.15,306.153 481.186,307.19 481.186,308.47 C481.186,309.75 480.15,310.787 478.871,310.787 C477.592,310.787 476.554,309.75 476.554,308.47 C476.554,307.19 477.592,306.153 478.871,306.153 z M499.959,282.281 C500.984,282.281 501.814,283.111 501.814,284.135 C501.814,285.16 500.984,285.989 499.959,285.989 C498.936,285.989 498.105,285.16 498.105,284.135 C498.105,283.111 498.936,282.281 499.959,282.281 z M458.128,272.548 C459.857,272.548 461.257,273.948 461.257,275.676 C461.257,277.405 459.857,278.805 458.128,278.805 C456.398,278.805 454.999,277.405 454.999,275.676 C454.999,273.948 456.398,272.548 458.128,272.548 z M539.128,303.371 C540.534,303.371 541.675,304.512 541.675,305.92 C541.675,307.328 540.534,308.468 539.128,308.468 C537.719,308.468 536.578,307.328 536.578,305.92 C536.578,304.512 537.719,303.371 539.128,303.371 z M557.437,327.473 C558.459,327.473 559.289,328.303 559.289,329.327 C559.289,330.351 558.459,331.18 557.437,331.18 C556.413,331.18 555.58,330.351 555.58,329.327 C555.58,328.303 556.413,327.473 557.437,327.473 z M589.883,296.881 C591.162,296.881 592.2,297.918 592.2,299.198 C592.2,300.479 591.162,301.516 589.883,301.516 C588.603,301.516 587.564,300.479 587.564,299.198 C587.564,297.918 588.603,296.881 589.883,296.881 z M554.887,257.019 C557.318,257.019 559.289,258.99 559.289,261.422 C559.289,263.855 557.318,265.826 554.887,265.826 C552.454,265.826 550.483,263.855 550.483,261.422 C550.483,258.99 552.454,257.019 554.887,257.019 z M565.548,290.856 C567.211,290.856 568.56,292.204 568.56,293.869 C568.56,295.532 567.211,296.881 565.548,296.881 C563.885,296.881 562.533,295.532 562.533,293.869 C562.533,292.204 563.885,290.856 565.548,290.856 z M577.368,317.276 C579.671,317.276 581.538,319.143 581.538,321.448 C581.538,323.752 579.671,325.619 577.368,325.619 C575.063,325.619 573.194,323.752 573.194,321.448 C573.194,319.143 575.063,317.276 577.368,317.276 z M564.621,339.524 C563.212,339.524 562.071,340.666 562.071,342.074 C562.071,343.482 563.212,344.624 564.621,344.624 C566.027,344.624 567.168,343.482 567.168,342.074 C567.168,340.666 566.027,339.524 564.621,339.524 z M535.188,269.07 C537.236,269.07 538.896,270.73 538.896,272.778 C538.896,274.826 537.236,276.486 535.188,276.486 C533.138,276.486 531.479,274.826 531.479,272.778 C531.479,270.73 533.138,269.07 535.188,269.07 z M511.085,257.482 C512.621,257.482 513.864,258.728 513.864,260.264 C513.864,261.8 512.621,263.045 511.085,263.045 C509.549,263.045 508.303,261.8 508.303,260.264 C508.303,258.728 509.549,257.482 511.085,257.482 z M470.063,250.529 C472.238,250.529 474.004,252.294 474.004,254.47 C474.004,256.646 472.238,258.409 470.063,258.409 C467.887,258.409 466.125,256.646 466.125,254.47 C466.125,252.294 467.887,250.529 470.063,250.529 z M429.969,262.117 C431.762,262.117 433.213,263.57 433.213,265.362 C433.213,267.154 431.762,268.606 429.969,268.606 C428.178,268.606 426.726,267.154 426.726,265.362 C426.726,263.57 428.178,262.117 429.969,262.117 z M19.062,267.68 C20.086,267.68 20.916,268.51 20.916,269.534 C20.916,270.559 20.086,271.388 19.062,271.388 C18.038,271.388 17.208,270.559 17.208,269.534 C17.208,268.51 18.038,267.68 19.062,267.68" fill="#54321D"/>
    <path d="M30.188,392.361 C33.772,392.361 36.677,395.265 36.677,398.85 C36.677,402.434 33.772,405.338 30.188,405.338 C26.604,405.338 23.699,402.434 23.699,398.85 C23.699,395.265 26.604,392.361 30.188,392.361 z M54.059,421.563 C56.235,421.563 57.999,423.327 57.999,425.503 C57.999,427.678 56.235,429.442 54.059,429.442 C51.884,429.442 50.12,427.678 50.12,425.503 C50.12,423.327 51.884,421.563 54.059,421.563 z M68.892,447.056 C71.324,447.056 73.295,449.028 73.295,451.459 C73.295,453.891 71.324,455.863 68.892,455.863 C66.46,455.863 64.488,453.891 64.488,451.459 C64.488,449.028 66.46,447.056 68.892,447.056 z M27.175,458.181 C28.327,458.181 29.261,459.115 29.261,460.266 C29.261,461.419 28.327,462.351 27.175,462.351 C26.023,462.351 25.09,461.419 25.09,460.266 C25.09,459.115 26.023,458.181 27.175,458.181 z M32.505,428.979 C34.042,428.979 35.287,430.225 35.287,431.759 C35.287,433.296 34.042,434.542 32.505,434.542 C30.97,434.542 29.725,433.296 29.725,431.759 C29.725,430.225 30.97,428.979 32.505,428.979 z M50.352,457.716 C54.063,457.716 57.072,460.726 57.072,464.438 C57.072,468.15 54.063,471.159 50.352,471.159 C46.64,471.159 43.63,468.15 43.63,464.438 C43.63,460.726 46.64,457.716 50.352,457.716 z M125.44,452.155 C127.872,452.155 129.844,454.127 129.844,456.557 C129.844,458.99 127.872,460.962 125.44,460.962 C123.009,460.962 121.037,458.99 121.037,456.557 C121.037,454.127 123.009,452.155 125.44,452.155 z M131.466,402.559 C136.458,402.559 140.505,406.606 140.505,411.597 C140.505,416.589 136.458,420.636 131.466,420.636 C126.475,420.636 122.428,416.589 122.428,411.597 C122.428,406.606 126.475,402.559 131.466,402.559 z M77.931,384.945 C82.282,384.945 85.81,388.472 85.81,392.824 C85.81,397.175 82.282,400.704 77.931,400.704 C73.578,400.704 70.051,397.175 70.051,392.824 C70.051,388.472 73.578,384.945 77.931,384.945 z M94.849,416.927 C96.512,416.927 97.861,418.277 97.861,419.941 C97.861,421.604 96.512,422.953 94.849,422.953 C93.185,422.953 91.836,421.604 91.836,419.941 C91.836,418.277 93.185,416.927 94.849,416.927 z M185.002,437.786 C187.05,437.786 188.71,439.446 188.71,441.493 C188.71,443.542 187.05,445.202 185.002,445.202 C182.954,445.202 181.294,443.542 181.294,441.493 C181.294,439.446 182.954,437.786 185.002,437.786 z M244.332,403.022 C247.66,403.022 250.357,405.72 250.357,409.047 C250.357,412.376 247.66,415.074 244.332,415.074 C241.004,415.074 238.306,412.376 238.306,409.047 C238.306,405.72 241.004,403.022 244.332,403.022 z M208.178,373.357 C211.505,373.357 214.204,376.055 214.204,379.383 C214.204,382.711 211.505,385.408 208.178,385.408 C204.85,385.408 202.152,382.711 202.152,379.383 C202.152,376.055 204.85,373.357 208.178,373.357 z M177.818,396.07 C179.994,396.07 181.757,397.834 181.757,400.009 C181.757,402.185 179.994,403.949 177.818,403.949 C175.642,403.949 173.878,402.185 173.878,400.009 C173.878,397.834 175.642,396.07 177.818,396.07 z M222.315,426.198 C226.027,426.198 229.036,429.207 229.036,432.919 C229.036,436.63 226.027,439.638 222.315,439.638 C218.603,439.638 215.595,436.63 215.595,432.919 C215.595,429.207 218.603,426.198 222.315,426.198 z M240.161,461.424 C244.256,461.424 247.577,464.746 247.577,468.84 C247.577,472.937 244.256,476.256 240.161,476.256 C236.064,476.256 232.745,472.937 232.745,468.84 C232.745,464.746 236.064,461.424 240.161,461.424 z M307.37,447.519 C314.794,447.519 320.813,453.538 320.813,460.962 C320.813,468.385 314.794,474.402 307.37,474.402 C299.947,474.402 293.93,468.385 293.93,460.962 C293.93,453.538 299.947,447.519 307.37,447.519 z M333.327,408.121 C336.912,408.121 339.816,411.025 339.816,414.61 C339.816,418.194 336.912,421.098 333.327,421.098 C329.743,421.098 326.839,418.194 326.839,414.61 C326.839,411.025 329.743,408.121 333.327,408.121 z M333.327,370.577 C339.214,370.577 343.988,375.348 343.988,381.236 C343.988,387.124 339.214,391.898 333.327,391.898 C327.439,391.898 322.667,387.124 322.667,381.236 C322.667,375.348 327.439,370.577 333.327,370.577 z M287.903,374.284 C290.975,374.284 293.465,376.775 293.465,379.846 C293.465,382.919 290.975,385.408 287.903,385.408 C284.831,385.408 282.341,382.919 282.341,379.846 C282.341,376.775 284.831,374.284 287.903,374.284 z M292.075,408.121 C294.891,408.121 297.173,410.404 297.173,413.219 C297.173,416.036 294.891,418.319 292.075,418.319 C289.258,418.319 286.977,416.036 286.977,413.219 C286.977,410.404 289.258,408.121 292.075,408.121 z M357.663,427.125 C362.397,427.125 366.237,430.964 366.237,435.699 C366.237,440.435 362.397,444.275 357.663,444.275 C352.927,444.275 349.087,440.435 349.087,435.699 C349.087,430.964 352.927,427.125 357.663,427.125 z M401.928,443.811 C410.375,443.811 417.224,450.659 417.224,459.107 C417.224,467.555 410.375,474.404 401.928,474.404 C393.479,474.404 386.633,467.555 386.633,459.107 C386.633,450.659 393.479,443.811 401.928,443.811 z M415.138,403.949 C421.153,403.949 426.029,408.827 426.029,414.841 C426.029,420.857 421.153,425.733 415.138,425.733 C409.122,425.733 404.245,420.857 404.245,414.841 C404.245,408.827 409.122,403.949 415.138,403.949 z M367.164,372.43 C369.979,372.43 372.263,374.712 372.263,377.529 C372.263,380.344 369.979,382.628 367.164,382.628 C364.349,382.628 362.065,380.344 362.065,377.529 C362.065,374.712 364.349,372.43 367.164,372.43 z M421.164,377.992 C424.875,377.992 427.884,381.001 427.884,384.713 C427.884,388.424 424.875,391.434 421.164,391.434 C417.452,391.434 414.443,388.424 414.443,384.713 C414.443,381.001 417.452,377.992 421.164,377.992 z M464.039,402.559 C465.832,402.559 467.283,404.01 467.283,405.803 C467.283,407.595 465.832,409.047 464.039,409.047 C462.247,409.047 460.796,407.595 460.796,405.803 C460.796,404.01 462.247,402.559 464.039,402.559 z M489.068,428.515 C493.676,428.515 497.412,432.252 497.412,436.858 C497.412,441.465 493.676,445.202 489.068,445.202 C484.46,445.202 480.725,441.465 480.725,436.858 C480.725,432.252 484.46,428.515 489.068,428.515 z M455.927,461.888 C458.87,461.888 461.257,464.275 461.257,467.218 C461.257,470.163 458.87,472.549 455.927,472.549 C452.983,472.549 450.597,470.163 450.597,467.218 C450.597,464.275 452.983,461.888 455.927,461.888 z M518.734,459.571 C520.015,459.571 521.053,460.608 521.053,461.888 C521.053,463.168 520.015,464.206 518.734,464.206 C517.455,464.206 516.417,463.168 516.417,461.888 C516.417,460.608 517.455,459.571 518.734,459.571 z M493.241,469.768 C494.777,469.768 496.021,471.013 496.021,472.549 C496.021,474.086 494.777,475.331 493.241,475.331 C491.705,475.331 490.459,474.086 490.459,472.549 C490.459,471.013 491.705,469.768 493.241,469.768 z M453.609,429.907 C455.53,429.907 457.087,431.463 457.087,433.383 C457.087,435.302 455.53,436.858 453.609,436.858 C451.69,436.858 450.135,435.302 450.135,433.383 C450.135,431.463 451.69,429.907 453.609,429.907 z M499.268,402.096 C501.313,402.096 502.974,403.755 502.974,405.803 C502.974,407.852 501.313,409.511 499.268,409.511 C497.219,409.511 495.559,407.852 495.559,405.803 C495.559,403.755 497.219,402.096 499.268,402.096 z M532.873,401.632 C535.305,401.632 537.275,403.603 537.275,406.036 C537.275,408.467 535.305,410.438 532.873,410.438 C530.44,410.438 528.47,408.467 528.47,406.036 C528.47,403.603 530.44,401.632 532.873,401.632 z M547.937,431.759 C549.982,431.759 551.643,433.421 551.643,435.468 C551.643,437.516 549.982,439.175 547.937,439.175 C545.888,439.175 544.229,437.516 544.229,435.468 C544.229,433.421 545.888,431.759 547.937,431.759 z M545.852,460.962 C548.537,460.962 550.716,463.14 550.716,465.829 C550.716,468.516 548.537,470.695 545.852,470.695 C543.163,470.695 540.984,468.516 540.984,465.829 C540.984,463.14 543.163,460.962 545.852,460.962 z M573.662,423.418 C575.838,423.418 577.601,425.181 577.601,427.357 C577.601,429.533 575.838,431.296 573.662,431.296 C571.486,431.296 569.722,429.533 569.722,427.357 C569.722,425.181 571.486,423.418 573.662,423.418 z M574.356,385.41 C575.893,385.41 577.139,386.655 577.139,388.19 C577.139,389.725 575.893,390.971 574.356,390.971 C572.82,390.971 571.574,389.725 571.574,388.19 C571.574,386.655 572.82,385.41 574.356,385.41 z M585.482,365.478 C589.064,365.478 591.971,368.384 591.971,371.965 C591.971,375.551 589.064,378.457 585.482,378.457 C581.897,378.457 578.991,375.551 578.991,371.965 C578.991,368.384 581.897,365.478 585.482,365.478 z M576.674,403.022 C575.651,403.022 574.821,403.852 574.821,404.877 C574.821,405.9 575.651,406.729 576.674,406.729 C577.697,406.729 578.527,405.9 578.527,404.877 C578.527,403.852 577.697,403.022 576.674,403.022 z M531.946,378.919 C534.122,378.919 535.884,380.684 535.884,382.86 C535.884,385.036 534.122,386.799 531.946,386.799 C529.771,386.799 528.005,385.036 528.005,382.86 C528.005,380.684 529.771,378.919 531.946,378.919 z M551.643,405.339 C553.691,405.339 555.352,407 555.352,409.047 C555.352,411.096 553.691,412.755 551.643,412.755 C549.597,412.755 547.937,411.096 547.937,409.047 C547.937,407 549.597,405.339 551.643,405.339 z M18.832,366.404 C22.032,366.404 24.625,368.998 24.625,372.198 C24.625,375.397 22.032,377.992 18.832,377.992 C15.632,377.992 13.038,375.397 13.038,372.198 C13.038,368.998 15.632,366.404 18.832,366.404" fill="#3C281A"/>
  </g>
</svg>
